<mxfile host="app.diagrams.net" modified="2022-10-12T15:01:13.428Z" agent="5.0 (Macintosh; Intel Mac OS X 10_15_7) AppleWebKit/605.1.15 (KHTML, like Gecko) Version/16.0 Safari/605.1.15" etag="FJpyEIpBSJUiDhNufBdA" version="20.4.0" type="github">
  <diagram id="C5RBs43oDa-KdzZeNtuy" name="Page-1">
    <mxGraphModel dx="5001" dy="629" grid="1" gridSize="10" guides="1" tooltips="1" connect="1" arrows="1" fold="1" page="1" pageScale="1" pageWidth="827" pageHeight="1169" math="0" shadow="0">
      <root>
        <mxCell id="WIyWlLk6GJQsqaUBKTNV-0" />
        <mxCell id="WIyWlLk6GJQsqaUBKTNV-1" parent="WIyWlLk6GJQsqaUBKTNV-0" />
        <mxCell id="ZwfCf8OuCYuhyi2rP76i-0" value="Start" style="ellipse;whiteSpace=wrap;html=1;" vertex="1" parent="WIyWlLk6GJQsqaUBKTNV-1">
          <mxGeometry x="-2950" y="60" width="120" height="50" as="geometry" />
        </mxCell>
        <mxCell id="ZwfCf8OuCYuhyi2rP76i-1" value="" style="endArrow=classic;html=1;rounded=0;exitX=0.5;exitY=1;exitDx=0;exitDy=0;" edge="1" parent="WIyWlLk6GJQsqaUBKTNV-1" source="ZwfCf8OuCYuhyi2rP76i-0" target="ZwfCf8OuCYuhyi2rP76i-2">
          <mxGeometry width="50" height="50" relative="1" as="geometry">
            <mxPoint x="-2770" y="290" as="sourcePoint" />
            <mxPoint x="-2890" y="160" as="targetPoint" />
          </mxGeometry>
        </mxCell>
        <mxCell id="ZwfCf8OuCYuhyi2rP76i-11" style="edgeStyle=orthogonalEdgeStyle;rounded=0;orthogonalLoop=1;jettySize=auto;html=1;" edge="1" parent="WIyWlLk6GJQsqaUBKTNV-1" source="ZwfCf8OuCYuhyi2rP76i-2">
          <mxGeometry relative="1" as="geometry">
            <mxPoint x="-2890" y="230" as="targetPoint" />
          </mxGeometry>
        </mxCell>
        <mxCell id="ZwfCf8OuCYuhyi2rP76i-2" value="Array" style="rounded=0;whiteSpace=wrap;html=1;" vertex="1" parent="WIyWlLk6GJQsqaUBKTNV-1">
          <mxGeometry x="-2950" y="140" width="120" height="50" as="geometry" />
        </mxCell>
        <mxCell id="ZwfCf8OuCYuhyi2rP76i-16" style="edgeStyle=orthogonalEdgeStyle;rounded=0;orthogonalLoop=1;jettySize=auto;html=1;" edge="1" parent="WIyWlLk6GJQsqaUBKTNV-1" source="ZwfCf8OuCYuhyi2rP76i-6">
          <mxGeometry relative="1" as="geometry">
            <mxPoint x="-3080" y="500" as="targetPoint" />
          </mxGeometry>
        </mxCell>
        <mxCell id="ZwfCf8OuCYuhyi2rP76i-21" style="edgeStyle=orthogonalEdgeStyle;rounded=0;orthogonalLoop=1;jettySize=auto;html=1;" edge="1" parent="WIyWlLk6GJQsqaUBKTNV-1" source="ZwfCf8OuCYuhyi2rP76i-6">
          <mxGeometry relative="1" as="geometry">
            <mxPoint x="-2710" y="500" as="targetPoint" />
          </mxGeometry>
        </mxCell>
        <mxCell id="ZwfCf8OuCYuhyi2rP76i-6" value="&lt;span style=&quot;color: var(--color-prettylights-syntax-keyword); text-align: start; box-sizing: border-box; font-family: ui-monospace, SFMono-Regular, &amp;quot;SF Mono&amp;quot;, Menlo, Consolas, &amp;quot;Liberation Mono&amp;quot;, monospace;&quot; class=&quot;pl-k&quot;&gt;if&lt;/span&gt;&lt;span style=&quot;text-align: start; caret-color: rgb(36, 41, 47); color: rgb(36, 41, 47); font-family: ui-monospace, SFMono-Regular, &amp;quot;SF Mono&amp;quot;, Menlo, Consolas, &amp;quot;Liberation Mono&amp;quot;, monospace; background-color: rgb(230, 255, 236);&quot;&gt;(&lt;/span&gt;&lt;span style=&quot;text-align: start; box-sizing: border-box; color: rgb(36, 41, 47); caret-color: rgb(36, 41, 47); font-family: ui-monospace, SFMono-Regular, &amp;quot;SF Mono&amp;quot;, Menlo, Consolas, &amp;quot;Liberation Mono&amp;quot;, monospace;&quot; class=&quot;pl-smi&quot;&gt;array&lt;/span&gt;&lt;span style=&quot;text-align: start; caret-color: rgb(36, 41, 47); color: rgb(36, 41, 47); font-family: ui-monospace, SFMono-Regular, &amp;quot;SF Mono&amp;quot;, Menlo, Consolas, &amp;quot;Liberation Mono&amp;quot;, monospace; background-color: rgb(230, 255, 236);&quot;&gt;[&lt;/span&gt;&lt;span style=&quot;text-align: start; box-sizing: border-box; color: rgb(36, 41, 47); caret-color: rgb(36, 41, 47); font-family: ui-monospace, SFMono-Regular, &amp;quot;SF Mono&amp;quot;, Menlo, Consolas, &amp;quot;Liberation Mono&amp;quot;, monospace;&quot; class=&quot;pl-smi&quot;&gt;i&lt;/span&gt;&lt;span style=&quot;text-align: start; caret-color: rgb(36, 41, 47); color: rgb(36, 41, 47); font-family: ui-monospace, SFMono-Regular, &amp;quot;SF Mono&amp;quot;, Menlo, Consolas, &amp;quot;Liberation Mono&amp;quot;, monospace; background-color: rgb(230, 255, 236);&quot;&gt;].&lt;/span&gt;&lt;span style=&quot;text-align: start; box-sizing: border-box; color: rgb(36, 41, 47); caret-color: rgb(36, 41, 47); font-family: ui-monospace, SFMono-Regular, &amp;quot;SF Mono&amp;quot;, Menlo, Consolas, &amp;quot;Liberation Mono&amp;quot;, monospace;&quot; class=&quot;pl-smi&quot;&gt;Length&lt;/span&gt;&lt;span style=&quot;text-align: start; caret-color: rgb(36, 41, 47); color: rgb(36, 41, 47); font-family: ui-monospace, SFMono-Regular, &amp;quot;SF Mono&amp;quot;, Menlo, Consolas, &amp;quot;Liberation Mono&amp;quot;, monospace; background-color: rgb(230, 255, 236);&quot;&gt; &lt;/span&gt;&lt;span style=&quot;color: var(--color-prettylights-syntax-keyword); text-align: start; box-sizing: border-box; font-family: ui-monospace, SFMono-Regular, &amp;quot;SF Mono&amp;quot;, Menlo, Consolas, &amp;quot;Liberation Mono&amp;quot;, monospace;&quot; class=&quot;pl-k&quot;&gt;&amp;lt;=&lt;/span&gt;&lt;span style=&quot;text-align: start; caret-color: rgb(36, 41, 47); color: rgb(36, 41, 47); font-family: ui-monospace, SFMono-Regular, &amp;quot;SF Mono&amp;quot;, Menlo, Consolas, &amp;quot;Liberation Mono&amp;quot;, monospace; background-color: rgb(230, 255, 236);&quot;&gt; &lt;/span&gt;&lt;span style=&quot;color: var(--color-prettylights-syntax-constant); text-align: start; box-sizing: border-box; font-family: ui-monospace, SFMono-Regular, &amp;quot;SF Mono&amp;quot;, Menlo, Consolas, &amp;quot;Liberation Mono&amp;quot;, monospace;&quot; class=&quot;pl-c1&quot;&gt;3&lt;/span&gt;&lt;span style=&quot;text-align: start; caret-color: rgb(36, 41, 47); color: rgb(36, 41, 47); font-family: ui-monospace, SFMono-Regular, &amp;quot;SF Mono&amp;quot;, Menlo, Consolas, &amp;quot;Liberation Mono&amp;quot;, monospace; background-color: rgb(230, 255, 236);&quot;&gt;)&lt;/span&gt;" style="rhombus;whiteSpace=wrap;html=1;" vertex="1" parent="WIyWlLk6GJQsqaUBKTNV-1">
          <mxGeometry x="-3002.81" y="450" width="225.62" height="100" as="geometry" />
        </mxCell>
        <mxCell id="ZwfCf8OuCYuhyi2rP76i-9" style="edgeStyle=orthogonalEdgeStyle;rounded=0;orthogonalLoop=1;jettySize=auto;html=1;entryX=0.5;entryY=0;entryDx=0;entryDy=0;" edge="1" parent="WIyWlLk6GJQsqaUBKTNV-1" source="ZwfCf8OuCYuhyi2rP76i-8" target="ZwfCf8OuCYuhyi2rP76i-6">
          <mxGeometry relative="1" as="geometry" />
        </mxCell>
        <mxCell id="ZwfCf8OuCYuhyi2rP76i-8" value="&lt;span style=&quot;color: var(--color-prettylights-syntax-keyword); text-align: start; box-sizing: border-box; font-family: ui-monospace, SFMono-Regular, &amp;quot;SF Mono&amp;quot;, Menlo, Consolas, &amp;quot;Liberation Mono&amp;quot;, monospace;&quot; class=&quot;pl-k&quot;&gt;int&lt;/span&gt;&lt;span style=&quot;text-align: start; caret-color: rgb(36, 41, 47); color: rgb(36, 41, 47); font-family: ui-monospace, SFMono-Regular, &amp;quot;SF Mono&amp;quot;, Menlo, Consolas, &amp;quot;Liberation Mono&amp;quot;, monospace; background-color: rgb(230, 255, 236);&quot;&gt; &lt;/span&gt;&lt;span style=&quot;color: var(--color-prettylights-syntax-entity); text-align: start; box-sizing: border-box; font-family: ui-monospace, SFMono-Regular, &amp;quot;SF Mono&amp;quot;, Menlo, Consolas, &amp;quot;Liberation Mono&amp;quot;, monospace;&quot; class=&quot;pl-en&quot;&gt;i&lt;/span&gt;&lt;span style=&quot;text-align: start; caret-color: rgb(36, 41, 47); color: rgb(36, 41, 47); font-family: ui-monospace, SFMono-Regular, &amp;quot;SF Mono&amp;quot;, Menlo, Consolas, &amp;quot;Liberation Mono&amp;quot;, monospace; background-color: rgb(230, 255, 236);&quot;&gt; &lt;/span&gt;&lt;span style=&quot;color: var(--color-prettylights-syntax-keyword); text-align: start; box-sizing: border-box; font-family: ui-monospace, SFMono-Regular, &amp;quot;SF Mono&amp;quot;, Menlo, Consolas, &amp;quot;Liberation Mono&amp;quot;, monospace;&quot; class=&quot;pl-k&quot;&gt;=&lt;/span&gt;&lt;span style=&quot;text-align: start; caret-color: rgb(36, 41, 47); color: rgb(36, 41, 47); font-family: ui-monospace, SFMono-Regular, &amp;quot;SF Mono&amp;quot;, Menlo, Consolas, &amp;quot;Liberation Mono&amp;quot;, monospace; background-color: rgb(230, 255, 236);&quot;&gt; &lt;/span&gt;&lt;span style=&quot;color: var(--color-prettylights-syntax-constant); text-align: start; box-sizing: border-box; font-family: ui-monospace, SFMono-Regular, &amp;quot;SF Mono&amp;quot;, Menlo, Consolas, &amp;quot;Liberation Mono&amp;quot;, monospace;&quot; class=&quot;pl-c1&quot;&gt;0&lt;/span&gt;&lt;span style=&quot;text-align: start; caret-color: rgb(36, 41, 47); color: rgb(36, 41, 47); font-family: ui-monospace, SFMono-Regular, &amp;quot;SF Mono&amp;quot;, Menlo, Consolas, &amp;quot;Liberation Mono&amp;quot;, monospace; background-color: rgb(230, 255, 236);&quot;&gt;; &lt;/span&gt;&lt;span style=&quot;text-align: start; box-sizing: border-box; color: rgb(36, 41, 47); caret-color: rgb(36, 41, 47); font-family: ui-monospace, SFMono-Regular, &amp;quot;SF Mono&amp;quot;, Menlo, Consolas, &amp;quot;Liberation Mono&amp;quot;, monospace;&quot; class=&quot;pl-smi&quot;&gt;i&lt;/span&gt;&lt;span style=&quot;text-align: start; caret-color: rgb(36, 41, 47); color: rgb(36, 41, 47); font-family: ui-monospace, SFMono-Regular, &amp;quot;SF Mono&amp;quot;, Menlo, Consolas, &amp;quot;Liberation Mono&amp;quot;, monospace; background-color: rgb(230, 255, 236);&quot;&gt; &lt;/span&gt;&lt;span style=&quot;color: var(--color-prettylights-syntax-keyword); text-align: start; box-sizing: border-box; font-family: ui-monospace, SFMono-Regular, &amp;quot;SF Mono&amp;quot;, Menlo, Consolas, &amp;quot;Liberation Mono&amp;quot;, monospace;&quot; class=&quot;pl-k&quot;&gt;&amp;lt;&lt;/span&gt;&lt;span style=&quot;text-align: start; caret-color: rgb(36, 41, 47); color: rgb(36, 41, 47); font-family: ui-monospace, SFMono-Regular, &amp;quot;SF Mono&amp;quot;, Menlo, Consolas, &amp;quot;Liberation Mono&amp;quot;, monospace; background-color: rgb(230, 255, 236);&quot;&gt; &lt;/span&gt;&lt;span style=&quot;text-align: start; box-sizing: border-box; color: rgb(36, 41, 47); caret-color: rgb(36, 41, 47); font-family: ui-monospace, SFMono-Regular, &amp;quot;SF Mono&amp;quot;, Menlo, Consolas, &amp;quot;Liberation Mono&amp;quot;, monospace;&quot; class=&quot;pl-smi&quot;&gt;array&lt;/span&gt;&lt;span style=&quot;text-align: start; caret-color: rgb(36, 41, 47); color: rgb(36, 41, 47); font-family: ui-monospace, SFMono-Regular, &amp;quot;SF Mono&amp;quot;, Menlo, Consolas, &amp;quot;Liberation Mono&amp;quot;, monospace; background-color: rgb(230, 255, 236);&quot;&gt;.&lt;/span&gt;&lt;span style=&quot;text-align: start; box-sizing: border-box; color: rgb(36, 41, 47); caret-color: rgb(36, 41, 47); font-family: ui-monospace, SFMono-Regular, &amp;quot;SF Mono&amp;quot;, Menlo, Consolas, &amp;quot;Liberation Mono&amp;quot;, monospace;&quot; class=&quot;pl-smi&quot;&gt;Length&lt;/span&gt;&lt;span style=&quot;text-align: start; caret-color: rgb(36, 41, 47); color: rgb(36, 41, 47); font-family: ui-monospace, SFMono-Regular, &amp;quot;SF Mono&amp;quot;, Menlo, Consolas, &amp;quot;Liberation Mono&amp;quot;, monospace; background-color: rgb(230, 255, 236);&quot;&gt;; &lt;/span&gt;&lt;span style=&quot;text-align: start; box-sizing: border-box; color: rgb(36, 41, 47); caret-color: rgb(36, 41, 47); font-family: ui-monospace, SFMono-Regular, &amp;quot;SF Mono&amp;quot;, Menlo, Consolas, &amp;quot;Liberation Mono&amp;quot;, monospace;&quot; class=&quot;pl-smi&quot;&gt;i&lt;/span&gt;&lt;span style=&quot;color: var(--color-prettylights-syntax-keyword); text-align: start; box-sizing: border-box; font-family: ui-monospace, SFMono-Regular, &amp;quot;SF Mono&amp;quot;, Menlo, Consolas, &amp;quot;Liberation Mono&amp;quot;, monospace;&quot; class=&quot;pl-k&quot;&gt;++&lt;/span&gt;" style="shape=hexagon;perimeter=hexagonPerimeter2;whiteSpace=wrap;html=1;fixedSize=1;" vertex="1" parent="WIyWlLk6GJQsqaUBKTNV-1">
          <mxGeometry x="-3008.75" y="340" width="237.5" height="70" as="geometry" />
        </mxCell>
        <mxCell id="ZwfCf8OuCYuhyi2rP76i-10" value="&lt;span style=&quot;color: var(--color-prettylights-syntax-keyword); text-align: start; box-sizing: border-box; font-family: ui-monospace, SFMono-Regular, &amp;quot;SF Mono&amp;quot;, Menlo, Consolas, &amp;quot;Liberation Mono&amp;quot;, monospace;&quot; class=&quot;pl-k&quot;&gt;string[] array&lt;br&gt;string&lt;/span&gt;&lt;span style=&quot;text-align: start; caret-color: rgb(36, 41, 47); color: rgb(36, 41, 47); font-family: ui-monospace, SFMono-Regular, &amp;quot;SF Mono&amp;quot;, Menlo, Consolas, &amp;quot;Liberation Mono&amp;quot;, monospace; background-color: rgb(230, 255, 236);&quot;&gt;[] &lt;/span&gt;&lt;span style=&quot;color: var(--color-prettylights-syntax-entity); text-align: start; box-sizing: border-box; font-family: ui-monospace, SFMono-Regular, &amp;quot;SF Mono&amp;quot;, Menlo, Consolas, &amp;quot;Liberation Mono&amp;quot;, monospace;&quot; class=&quot;pl-en&quot;&gt;result&lt;/span&gt;&lt;span style=&quot;text-align: start; caret-color: rgb(36, 41, 47); color: rgb(36, 41, 47); font-family: ui-monospace, SFMono-Regular, &amp;quot;SF Mono&amp;quot;, Menlo, Consolas, &amp;quot;Liberation Mono&amp;quot;, monospace; background-color: rgb(230, 255, 236);&quot;&gt; &lt;/span&gt;&lt;span style=&quot;text-align: start; caret-color: rgb(36, 41, 47); color: rgb(36, 41, 47); font-family: ui-monospace, SFMono-Regular, &amp;quot;SF Mono&amp;quot;, Menlo, Consolas, &amp;quot;Liberation Mono&amp;quot;, monospace; background-color: rgb(230, 255, 236);&quot;&gt;&lt;br&gt;&lt;/span&gt;&lt;span style=&quot;color: var(--color-prettylights-syntax-keyword); text-align: start; box-sizing: border-box; font-family: ui-monospace, SFMono-Regular, &amp;quot;SF Mono&amp;quot;, Menlo, Consolas, &amp;quot;Liberation Mono&amp;quot;, monospace;&quot; class=&quot;pl-k&quot;&gt;int&lt;/span&gt;&lt;span style=&quot;text-align: start; caret-color: rgb(36, 41, 47); color: rgb(36, 41, 47); font-family: ui-monospace, SFMono-Regular, &amp;quot;SF Mono&amp;quot;, Menlo, Consolas, &amp;quot;Liberation Mono&amp;quot;, monospace; background-color: rgb(230, 255, 236);&quot;&gt; &lt;/span&gt;&lt;span style=&quot;color: var(--color-prettylights-syntax-entity); text-align: start; box-sizing: border-box; font-family: ui-monospace, SFMono-Regular, &amp;quot;SF Mono&amp;quot;, Menlo, Consolas, &amp;quot;Liberation Mono&amp;quot;, monospace;&quot; class=&quot;pl-en&quot;&gt;count&lt;/span&gt;&lt;span style=&quot;text-align: start; caret-color: rgb(36, 41, 47); color: rgb(36, 41, 47); font-family: ui-monospace, SFMono-Regular, &amp;quot;SF Mono&amp;quot;, Menlo, Consolas, &amp;quot;Liberation Mono&amp;quot;, monospace; background-color: rgb(230, 255, 236);&quot;&gt; &lt;/span&gt;&lt;span style=&quot;color: var(--color-prettylights-syntax-keyword); text-align: start; box-sizing: border-box; font-family: ui-monospace, SFMono-Regular, &amp;quot;SF Mono&amp;quot;, Menlo, Consolas, &amp;quot;Liberation Mono&amp;quot;, monospace;&quot; class=&quot;pl-k&quot;&gt;=&lt;/span&gt;&lt;span style=&quot;text-align: start; caret-color: rgb(36, 41, 47); color: rgb(36, 41, 47); font-family: ui-monospace, SFMono-Regular, &amp;quot;SF Mono&amp;quot;, Menlo, Consolas, &amp;quot;Liberation Mono&amp;quot;, monospace; background-color: rgb(230, 255, 236);&quot;&gt; &lt;/span&gt;&lt;span style=&quot;color: var(--color-prettylights-syntax-constant); text-align: start; box-sizing: border-box; font-family: ui-monospace, SFMono-Regular, &amp;quot;SF Mono&amp;quot;, Menlo, Consolas, &amp;quot;Liberation Mono&amp;quot;, monospace;&quot; class=&quot;pl-c1&quot;&gt;0&lt;/span&gt;&lt;span style=&quot;text-align: start; caret-color: rgb(36, 41, 47); color: rgb(36, 41, 47); font-family: ui-monospace, SFMono-Regular, &amp;quot;SF Mono&amp;quot;, Menlo, Consolas, &amp;quot;Liberation Mono&amp;quot;, monospace; background-color: rgb(230, 255, 236);&quot;&gt;;&lt;/span&gt;&lt;span style=&quot;text-align: start; caret-color: rgb(36, 41, 47); color: rgb(36, 41, 47); font-family: ui-monospace, SFMono-Regular, &amp;quot;SF Mono&amp;quot;, Menlo, Consolas, &amp;quot;Liberation Mono&amp;quot;, monospace; background-color: rgb(230, 255, 236);&quot;&gt;&lt;br&gt;&lt;/span&gt;" style="shape=parallelogram;perimeter=parallelogramPerimeter;whiteSpace=wrap;html=1;fixedSize=1;" vertex="1" parent="WIyWlLk6GJQsqaUBKTNV-1">
          <mxGeometry x="-3021" y="230" width="260" height="80" as="geometry" />
        </mxCell>
        <mxCell id="ZwfCf8OuCYuhyi2rP76i-14" value="Yes" style="text;html=1;strokeColor=none;fillColor=none;align=center;verticalAlign=middle;whiteSpace=wrap;rounded=0;" vertex="1" parent="WIyWlLk6GJQsqaUBKTNV-1">
          <mxGeometry x="-3060" y="470" width="60" height="30" as="geometry" />
        </mxCell>
        <mxCell id="ZwfCf8OuCYuhyi2rP76i-18" value="No" style="text;html=1;strokeColor=none;fillColor=none;align=center;verticalAlign=middle;whiteSpace=wrap;rounded=0;" vertex="1" parent="WIyWlLk6GJQsqaUBKTNV-1">
          <mxGeometry x="-2790" y="470" width="60" height="30" as="geometry" />
        </mxCell>
        <mxCell id="ZwfCf8OuCYuhyi2rP76i-20" style="edgeStyle=orthogonalEdgeStyle;rounded=0;orthogonalLoop=1;jettySize=auto;html=1;exitX=0.5;exitY=1;exitDx=0;exitDy=0;" edge="1" parent="WIyWlLk6GJQsqaUBKTNV-1" source="ZwfCf8OuCYuhyi2rP76i-18" target="ZwfCf8OuCYuhyi2rP76i-18">
          <mxGeometry relative="1" as="geometry" />
        </mxCell>
        <mxCell id="ZwfCf8OuCYuhyi2rP76i-26" style="edgeStyle=orthogonalEdgeStyle;rounded=0;orthogonalLoop=1;jettySize=auto;html=1;exitX=0.5;exitY=0;exitDx=0;exitDy=0;" edge="1" parent="WIyWlLk6GJQsqaUBKTNV-1" source="ZwfCf8OuCYuhyi2rP76i-22" target="ZwfCf8OuCYuhyi2rP76i-8">
          <mxGeometry relative="1" as="geometry">
            <mxPoint x="-3010" y="370" as="targetPoint" />
            <Array as="points">
              <mxPoint x="-3180" y="375" />
            </Array>
          </mxGeometry>
        </mxCell>
        <mxCell id="ZwfCf8OuCYuhyi2rP76i-22" value="&lt;br&gt;&lt;span style=&quot;text-align: start; box-sizing: border-box; color: rgb(36, 41, 47); caret-color: rgb(36, 41, 47); font-family: ui-monospace, SFMono-Regular, &amp;quot;SF Mono&amp;quot;, Menlo, Consolas, &amp;quot;Liberation Mono&amp;quot;, monospace;&quot; class=&quot;pl-smi&quot;&gt;result&lt;/span&gt;&lt;span style=&quot;text-align: start; caret-color: rgb(36, 41, 47); color: rgb(36, 41, 47); font-family: ui-monospace, SFMono-Regular, &amp;quot;SF Mono&amp;quot;, Menlo, Consolas, &amp;quot;Liberation Mono&amp;quot;, monospace; background-color: rgb(230, 255, 236);&quot;&gt;[&lt;/span&gt;&lt;span style=&quot;text-align: start; box-sizing: border-box; color: rgb(36, 41, 47); caret-color: rgb(36, 41, 47); font-family: ui-monospace, SFMono-Regular, &amp;quot;SF Mono&amp;quot;, Menlo, Consolas, &amp;quot;Liberation Mono&amp;quot;, monospace;&quot; class=&quot;pl-smi&quot;&gt;count&lt;/span&gt;&lt;span style=&quot;text-align: start; caret-color: rgb(36, 41, 47); color: rgb(36, 41, 47); font-family: ui-monospace, SFMono-Regular, &amp;quot;SF Mono&amp;quot;, Menlo, Consolas, &amp;quot;Liberation Mono&amp;quot;, monospace; background-color: rgb(230, 255, 236);&quot;&gt;] &lt;/span&gt;&lt;span style=&quot;color: var(--color-prettylights-syntax-keyword); text-align: start; box-sizing: border-box; font-family: ui-monospace, SFMono-Regular, &amp;quot;SF Mono&amp;quot;, Menlo, Consolas, &amp;quot;Liberation Mono&amp;quot;, monospace;&quot; class=&quot;pl-k&quot;&gt;=&lt;/span&gt;&lt;span style=&quot;text-align: start; caret-color: rgb(36, 41, 47); color: rgb(36, 41, 47); font-family: ui-monospace, SFMono-Regular, &amp;quot;SF Mono&amp;quot;, Menlo, Consolas, &amp;quot;Liberation Mono&amp;quot;, monospace; background-color: rgb(230, 255, 236);&quot;&gt; &lt;/span&gt;&lt;span style=&quot;text-align: start; box-sizing: border-box; color: rgb(36, 41, 47); caret-color: rgb(36, 41, 47); font-family: ui-monospace, SFMono-Regular, &amp;quot;SF Mono&amp;quot;, Menlo, Consolas, &amp;quot;Liberation Mono&amp;quot;, monospace;&quot; class=&quot;pl-smi&quot;&gt;array&lt;/span&gt;&lt;span style=&quot;text-align: start; caret-color: rgb(36, 41, 47); color: rgb(36, 41, 47); font-family: ui-monospace, SFMono-Regular, &amp;quot;SF Mono&amp;quot;, Menlo, Consolas, &amp;quot;Liberation Mono&amp;quot;, monospace; background-color: rgb(230, 255, 236);&quot;&gt;[&lt;/span&gt;&lt;span style=&quot;text-align: start; box-sizing: border-box; color: rgb(36, 41, 47); caret-color: rgb(36, 41, 47); font-family: ui-monospace, SFMono-Regular, &amp;quot;SF Mono&amp;quot;, Menlo, Consolas, &amp;quot;Liberation Mono&amp;quot;, monospace;&quot; class=&quot;pl-smi&quot;&gt;i&lt;/span&gt;&lt;span style=&quot;text-align: start; caret-color: rgb(36, 41, 47); color: rgb(36, 41, 47); font-family: ui-monospace, SFMono-Regular, &amp;quot;SF Mono&amp;quot;, Menlo, Consolas, &amp;quot;Liberation Mono&amp;quot;, monospace; background-color: rgb(230, 255, 236);&quot;&gt;];&lt;br&gt;&lt;/span&gt;&lt;span style=&quot;text-align: start; box-sizing: border-box; color: rgb(36, 41, 47); caret-color: rgb(36, 41, 47); font-family: ui-monospace, SFMono-Regular, &amp;quot;SF Mono&amp;quot;, Menlo, Consolas, &amp;quot;Liberation Mono&amp;quot;, monospace;&quot; class=&quot;pl-smi&quot;&gt;count&lt;/span&gt;&lt;span style=&quot;color: var(--color-prettylights-syntax-keyword); text-align: start; box-sizing: border-box; font-family: ui-monospace, SFMono-Regular, &amp;quot;SF Mono&amp;quot;, Menlo, Consolas, &amp;quot;Liberation Mono&amp;quot;, monospace;&quot; class=&quot;pl-k&quot;&gt;++&lt;/span&gt;&lt;span style=&quot;text-align: start; caret-color: rgb(36, 41, 47); color: rgb(36, 41, 47); font-family: ui-monospace, SFMono-Regular, &amp;quot;SF Mono&amp;quot;, Menlo, Consolas, &amp;quot;Liberation Mono&amp;quot;, monospace; background-color: rgb(230, 255, 236);&quot;&gt;;&lt;/span&gt;&lt;span style=&quot;text-align: start; caret-color: rgb(36, 41, 47); color: rgb(36, 41, 47); font-family: ui-monospace, SFMono-Regular, &amp;quot;SF Mono&amp;quot;, Menlo, Consolas, &amp;quot;Liberation Mono&amp;quot;, monospace; background-color: rgb(230, 255, 236);&quot;&gt;&lt;br&gt;&lt;/span&gt;&lt;table style=&quot;text-align: start; box-sizing: border-box; border-spacing: 0px; width: 1164px; tab-size: 8; caret-color: rgb(36, 41, 47); color: rgb(36, 41, 47); font-family: -apple-system, BlinkMacSystemFont, &amp;quot;Segoe UI&amp;quot;, Helvetica, Arial, sans-serif, &amp;quot;Apple Color Emoji&amp;quot;, &amp;quot;Segoe UI Emoji&amp;quot;; font-size: 14px;&quot; data-paste-markdown-skip=&quot;&quot; data-diff-anchor=&quot;diff-0b69b473fe937040615d69f606751f61ddbc2e3a1849360ff2456c22afe88c0b&quot; data-tab-size=&quot;8&quot; class=&quot;diff-table js-diff-table tab-size&quot;&gt;&lt;/table&gt;" style="rounded=1;whiteSpace=wrap;html=1;" vertex="1" parent="WIyWlLk6GJQsqaUBKTNV-1">
          <mxGeometry x="-3280" y="470" width="200" height="70" as="geometry" />
        </mxCell>
        <mxCell id="ZwfCf8OuCYuhyi2rP76i-28" style="edgeStyle=orthogonalEdgeStyle;rounded=0;orthogonalLoop=1;jettySize=auto;html=1;" edge="1" parent="WIyWlLk6GJQsqaUBKTNV-1" source="ZwfCf8OuCYuhyi2rP76i-27">
          <mxGeometry relative="1" as="geometry">
            <mxPoint x="-2640" y="590" as="targetPoint" />
          </mxGeometry>
        </mxCell>
        <mxCell id="ZwfCf8OuCYuhyi2rP76i-27" value="Print result" style="shape=document;whiteSpace=wrap;html=1;boundedLbl=1;" vertex="1" parent="WIyWlLk6GJQsqaUBKTNV-1">
          <mxGeometry x="-2710" y="470" width="140" height="80" as="geometry" />
        </mxCell>
        <mxCell id="ZwfCf8OuCYuhyi2rP76i-29" value="End" style="ellipse;whiteSpace=wrap;html=1;" vertex="1" parent="WIyWlLk6GJQsqaUBKTNV-1">
          <mxGeometry x="-2710" y="590" width="140" height="60" as="geometry" />
        </mxCell>
      </root>
    </mxGraphModel>
  </diagram>
</mxfile>
